<svg xmlns:svg="http://www.w3.org/2000/svg" xmlns="http://www.w3.org/2000/svg" version="1.1" width="15.9325" height="15.841249" viewBox="0 0 12.746 12.673">
<path d="m3 12.673 0-4.9510002-1.484 0c-0.836 0-1.516-0.679-1.516-1.515l0-4.691C0 0.67999983 0.68-1.6782036e-7 1.516-1.6782036e-7l9.715 0c0.836 0 1.515 0.67999999782036 1.515 1.51599996782036l0 4.691c0 0.836-0.679 1.515-1.515 1.515l-3.283 0 0.001 0.001L3 12.673zM3.75 10.862 7.418 7.1929998c0.14-0.141 0.331-0.22 0.53-0.22l3.282-0.001c0.422 0 0.766-0.343 0.766-0.765l0-4.691c0-0.422-0.344-0.76599997-0.765-0.76599997l-9.715 0c-0.422 0-0.766 0.34399997-0.766 0.76599997l0 4.691c0 0.422 0.344 0.765 0.766 0.765l1.484 0c0.413 0 0.75 0.337 0.75 0.75l0 3.1400002z" fill="#f60"/>
</svg>